<?xml version="1.0" encoding="UTF-8" standalone="no"?>
<svg width="406px" height="388px" viewBox="0 0 406 388" version="1.1" xmlns="http://www.w3.org/2000/svg" xmlns:xlink="http://www.w3.org/1999/xlink">
    <!-- Generator: Sketch 42 (36781) - http://www.bohemiancoding.com/sketch -->
    <title>Group</title>
    <desc>Created with Sketch.</desc>
    <defs></defs>
    <g id="Page-1" stroke="none" stroke-width="1" fill="none" fill-rule="evenodd">
        <g id="SBTC" transform="translate(-526.000000, -657.000000)" fill-rule="nonzero">
            <g id="Layer_2" transform="translate(525.000000, 656.000000)">
                <g id="Group">
                    <path d="M19.674,332.628 C7.625,306.626 0.93,277.645 1,247.097 C1.254,135.217 92.155,44.726 204.036,44.979 C315.915,45.232 406.409,136.134 406.155,248.014 C406.085,278.563 399.259,307.514 387.093,333.462 M19.674,332.628 L387.092,333.462" id="Shape" fill="#C4DCE1"></path>
                    <path d="M259.293,70.737 C259.293,70.737 254.484,70.699 248.133,71.954 C241.906,73.185 241.352,75.748 241.342,80.403 C241.332,85.058 242.59,89.716 242.578,95.007 C242.566,100.298 240.129,102.726 239.068,103.781 C238.007,104.836 238.533,106.214 241.285,106.219 C244.035,106.225 245.301,107.285 246.791,103.904 C248.281,100.521 249.766,98.832 249.773,95.446 C249.781,92.061 251.689,90.16 251.689,90.16 C251.689,90.16 251.162,89.631 253.484,91.963 C252.98,94.483 252.98,94.483 252.98,97.028 C252.98,104.898 254.133,110.797 257.576,121.518 C260.68,131.184 259.002,129.818 257.295,135.951 C255.588,142.084 241.97,155.183 239.626,162.796 C237.28,170.408 235.401,186.379 238.097,210.086 C240.796,233.791 245.3,231.771 247.626,253.01 C248.819,263.893 246.83,271.919 246.83,271.919 C246.83,271.919 244.256,264.103 237.4,262.235 C226.207,259.187 227.968,283.137 229.437,289.831 C236.218,320.716 234.652,331.944 234.578,332.905 C232.994,331.313 230.199,327.606 224.267,330.553 C220.515,332.418 219.953,343.188 219.953,343.188 C219.953,343.188 220.683,343.54 227.512,346.379 C232.375,348.399 232.897,351.313 235.852,354.281 C238.809,357.25 241.11,358.332 245.313,357.847 C248.012,357.535 248.973,354.308 248.977,352.195 C248.981,350.078 248.946,347.824 248.25,345.949 C247.92,345.054 247.625,342.351 247.631,338.965 C247.639,335.578 254.703,346.07 262.207,350.215 C269.711,354.356 280.072,356.707 280.072,356.707 C280.072,356.707 278.521,363.055 289.142,369.426 C298.035,374.758 319.351,372.762 327.605,372.762 C337.222,372.762 357.347,374.45 358.535,379.672 C356.094,382.524 352.051,383.598 349.508,383.59 C346.922,383.586 343.246,387.008 343.246,387.008 C343.246,387.008 347.295,389.332 352.695,388.653 C360.716,387.645 365.381,384.501 366.605,381.344 C367.71,378.508 365.812,375.66 364.789,374.364 C359.725,367.93 345.482,366.887 334.281,366.262 C322.236,365.59 310.523,367.219 303.332,364.801 C293.486,361.489 294.676,355.258 294.676,355.258 C294.676,355.258 296.473,356.004 298.488,353.996 C300.504,351.992 310.359,344.715 310.359,344.715 C310.359,344.715 310.578,356.246 315.941,356.262 C324.228,356.278 327.019,349.414 329.824,346.453 C332.972,343.125 339.529,337.945 340.314,337.164 C340.332,330.111 336.949,328.48 332.503,328.471 C329.362,328.465 328.116,330.129 325.829,331.547 C322.061,316.668 345.309,266.291 326.011,264.766 C323.866,264.596 320.195,268.134 318.425,271.87 C312.363,254.33 322.929,233.151 327.292,205.722 C328.913,195.531 329.71,179.852 327.042,166.664 C325.214,157.621 317.729,149.597 316.522,145.393 C312.459,131.234 315.305,119.327 316.625,110.474 C318.052,100.901 316.457,96.501 316.459,95.232 C316.463,93.962 316.075,89.522 316.075,89.522 C316.075,89.522 317.665,88.15 319.038,89.528 C320.409,90.907 321.143,93.553 323.257,95.674 C325.366,97.795 335.569,100.516 330.769,95.691 C325.964,90.867 327.001,88.608 324.765,84.04 C322.558,79.537 322.468,69.786 315.49,68.148 C308.691,66.552 307.293,68.126 307.293,68.126 C307.293,68.126 303.648,65.017 300.131,64.067 C293.172,62.19 285.518,62.558 281.16,62.787 C269.592,63.397 259.293,70.737 259.293,70.737 Z" id="Shape" fill="#A5A48C"></path>
                    <path d="M227.735,37.221 C224.555,40.388 223.446,39.169 223.446,39.169 C223.446,39.169 222.801,46.328 221.942,49.322 C220.922,52.874 217.559,54.534 216.919,55.87 C215.778,58.252 218.937,58.507 216.614,65.815 C215.932,67.961 212.954,73.253 211.936,75.751 C208.68,83.752 206.207,89.688 202.975,92.906 C198.946,96.917 194.469,95.038 193.221,95.698 C192.071,96.134 191.641,98.98 191.145,99.826 C193.682,100.679 195.301,102.375 195.301,102.375 L194.629,104.771 C194.629,104.771 196.844,106.187 204.453,109.378 C212.064,112.569 212.33,113.833 216.838,115.272 C222.942,117.219 233.852,117.404 248.75,125.561 C260.584,132.041 265.293,147.148 270.365,157.986 C273.408,164.488 276.267,167.945 276.265,169.214 C276.257,172.6 273.072,177.459 273.072,177.459 C273.072,177.459 275.394,179.898 282.562,191.553 C289.73,203.208 293.833,213.374 293.833,213.374 C312.233,217.647 309.083,225.715 317.54,228.803 C320.647,229.937 320.7,230.099 321.872,230.514 C322.095,228.952 322.604,227.608 322.831,226.861 C323.985,226.803 324.464,227.779 325.026,228.525 C329.796,234.859 329.546,241.091 328.479,244.897 C327.413,248.704 325.399,246.6 322.471,252.878 C321.043,255.939 316.921,254.235 316.921,254.235 C316.921,254.235 316.966,251.926 318.073,246.698 C314.278,244.85 314.453,249.218 300.627,249.185 C286.803,249.155 290.189,249.163 278.078,239.541 C265.967,229.919 251.039,203.719 251.039,203.719 C251.039,203.719 251.039,203.719 249.451,204.421 C243.74,203.279 239.156,194.847 239.156,194.847 C239.156,194.847 238.107,198.258 238.074,212.93 C238.041,227.602 231.502,249.875 233.453,260.037 C235.404,270.198 235.195,269.915 236.873,276.409 C238.551,282.901 241.098,279.522 241.088,283.188 C241.08,286.856 233.17,291.071 233.17,291.071 L233.652,297.28 L238.138,309.139 C238.138,309.139 242.085,310.559 242.076,314.791 C242.067,319.023 239.728,339.578 237.887,342.537 C235.354,346.611 232.748,353.916 218.92,355.295 C205.092,356.678 193.74,355.029 193.74,355.029 C193.74,355.029 167.49,359.201 145.486,357.459 C123.484,355.717 100.965,333.127 100.965,333.127 L68.096,333.053 C68.096,333.053 69.059,327.555 66.471,302.578 C63.883,277.603 69.561,269.204 74.6,264.19 C79.635,259.175 88.752,261.837 88.752,261.837 C88.752,261.837 87.443,244.751 86.838,231.947 C86.233,219.143 88.705,201.479 88.713,198.941 C88.717,196.402 85.014,196.711 85.014,196.711 C85.014,196.711 83.877,185 85.369,179.713 C86.197,176.787 84.428,166.175 85.375,158.44 C86.021,153.152 83.49,138.431 92.42,126.512 C104.494,110.4 120.022,109.015 131.106,103.567 C136.061,101.132 140.999,97.171 140.999,97.171 C140.999,97.171 146.901,99.921 147.882,94.676 C149.277,87.211 151.058,77.968 152.21,74.079 C150.228,71.178 145.138,63.072 145.181,44.297 C145.222,26.504 148.687,19.211 156.183,11.752 C160.722,7.231 170.005,-0.507 190.259,1.252 C218.161,3.68 230.917,34.055 227.735,37.221 Z M117.754,270.639 C117.754,270.639 129.379,272.879 131.498,275.008 C132.887,269.035 131.51,269.894 130.453,268.832 C126.559,270.012 120.083,270.645 117.754,270.639 Z" id="Shape" fill="#BEC69E"></path>
                </g>
            </g>
        </g>
    </g>
</svg>